<?xml version="1.0" encoding="UTF-8" standalone="no"?>
<!-- Generator: Adobe Illustrator 10.0, SVG Export Plug-In . SVG Version: 3.0.0 Build 76)  -->

<svg
   xmlns:dc="http://purl.org/dc/elements/1.1/"
   xmlns:cc="http://creativecommons.org/ns#"
   xmlns:rdf="http://www.w3.org/1999/02/22-rdf-syntax-ns#"
   xmlns:svg="http://www.w3.org/2000/svg"
   xmlns="http://www.w3.org/2000/svg"
   xmlns:sodipodi="http://sodipodi.sourceforge.net/DTD/sodipodi-0.dtd"
   xmlns:inkscape="http://www.inkscape.org/namespaces/inkscape"
   enable-background="new 0 0 340.961 377.751"
   height="200"
   overflow="visible"
   space="preserve"
   viewBox="0 0 200 200"
   width="200"
   version="1.1"
   id="svg57"
   sodipodi:docname="bsd.svg"
   inkscape:version="0.92.1 r"
   style="overflow:visible">
  <defs
     id="defs61" />
  <sodipodi:namedview
     pagecolor="#ffffff"
     bordercolor="#666666"
     borderopacity="1"
     objecttolerance="10"
     gridtolerance="10"
     guidetolerance="10"
     inkscape:pageopacity="0"
     inkscape:pageshadow="2"
     inkscape:window-width="1352"
     inkscape:window-height="1062"
     id="namedview59"
     showgrid="false"
     inkscape:zoom="1.5926146"
     inkscape:cx="148.2975"
     inkscape:cy="204.1768"
     inkscape:window-x="0"
     inkscape:window-y="18"
     inkscape:window-maximized="0"
     inkscape:current-layer="g54" />
  <metadata
     id="metadata2">
    <rdf:RDF>
      <cc:Work
         rdf:about="">
        <dc:title>Beastie, FreeBSD daemon</dc:title>
        <dc:description>FreeBSD daemon</dc:description>
        <dc:subject>
          <rdf:Bag>
            <rdf:li>BSD</rdf:li>
            <rdf:li>computer</rdf:li>
            <rdf:li>daemon</rdf:li>
            <rdf:li>bsd</rdf:li>
          </rdf:Bag>
        </dc:subject>
        <dc:publisher>
          <cc:Agent
             rdf:about="http://www.openclipart.org/">
            <dc:title>Open Clip Art Library</dc:title>
          </cc:Agent>
        </dc:publisher>
        <dc:creator>
          <cc:Agent>
            <dc:title>Ryland Sanders</dc:title>
          </cc:Agent>
        </dc:creator>
        <dc:rights>
          <cc:Agent>
            <dc:title>Ryland Sanders</dc:title>
          </cc:Agent>
        </dc:rights>
        <dc:date>24 September 2006</dc:date>
        <dc:format>image/svg+xml</dc:format>
        <dc:type
           rdf:resource="http://purl.org/dc/dcmitype/StillImage" />
        <cc:license
           rdf:resource="http://web.resource.org/cc/PublicDomain" />
        <dc:language>en</dc:language>
      </cc:Work>
      <cc:License
         rdf:about="http://web.resource.org/cc/PublicDomain">
        <cc:permits
           rdf:resource="http://web.resource.org/cc/Reproduction" />
        <cc:permits
           rdf:resource="http://web.resource.org/cc/Distribution" />
        <cc:permits
           rdf:resource="http://web.resource.org/cc/DerivativeWorks" />
      </cc:License>
    </rdf:RDF>
  </metadata>
  <g
     id="Layer_1"
     transform="matrix(0.7331305,0,0,0.7331305,45.4805,-109.34659)">
    <g
       id="g54">
      <g
         id="g4524"
         transform="matrix(0.72182711,0,0,0.72182711,-48.707373,149.2157)">
        <path
           inkscape:connector-curvature="0"
           transform="matrix(1.3640136,0,0,1.3640136,-62.036022,-93.304562)"
           id="path4"
           d="m 145.9668,68.34375 c -4.65192,0.23183 -14.58615,7.318016 -19.09375,10.783203 -16.12887,12.397237 -28.710225,25.835937 -16.79688,46.546877 -0.40322,1.73019 -3.14402,9.39019 -3.16601,12.86523 -0.022,2.86654 -1.22552,5.53536 -2.81641,8.10938 -2.16273,3.49703 -5.123271,5.71937 -6.912109,8.10937 -4.860656,6.47354 -2.288696,19.57453 4.859379,25.94531 5.20522,4.64072 10.3091,5.26392 16.4746,8.79688 3.1598,3.66565 10.76214,8.11538 16.39258,10.24219 0.62316,0.87902 1.2538,1.76746 1.87696,2.64648 0.38856,9.44272 -7.19316,14.67729 -11.44532,10.33789 -2.7639,-2.86654 -6.80202,-2.58135 -9.05273,-1.51758 -0.32991,-0.43254 -0.52904,-0.82818 -0.79297,-1.27539 1.67154,-1.54544 2.98508,-4.26576 2.75781,-6.64843 -0.32991,-3.37314 -2.20765,-7.32434 -5.60937,-8.46875 -6.71548,-1.74485 -12.3164,-0.32808 -14.845705,3.41015 -1.752182,-1.84016 -4.178156,-3.96 -6.267578,-5.93945 0.73313,-2.64 2.184556,-5.01477 2.199219,-7.91797 0.183282,-4.824 -1.539654,-7.58794 -3.958985,-11.32617 -3.467707,-5.35992 -15.593662,-14.70748 -17.705078,-12.97656 0.439878,2.74924 3.429516,5.10274 4.617188,7.91797 1.063039,2.52184 1.541366,3.95906 2.201171,7.91796 1.781508,0.68255 3.004301,-2.05369 4.617188,-3.08007 1.876814,2.89586 3.988026,5.90301 4.251953,9.50195 0.161289,2.21479 -1.237431,4.52341 -1.611328,5.56445 -2.932522,-0.7258 -8.248635,-3.95762 -13.197266,-6.37695 -1.282978,-0.96114 1.554234,-2.84508 2.529297,-3.74024 -4.838661,-1.61215 -10.183558,-2.99903 -15.271484,-4.50195 1.568899,3.17446 5.923911,12.97019 7.353516,14.50977 0.659805,-1.86949 0.887679,-3.23344 2.419921,-3.18946 2.565957,2.56596 6.341652,6.45176 9.017579,9.12696 -0.78445,3.98823 -14.640432,5.29934 -19.904297,2.74804 0.06598,-1.8988 2.749574,-3.07857 3.189453,-5.38867 -1.392948,0.13197 -5.653529,0.21261 -8.46875,0 -2.800559,-0.21261 -4.618485,-1.09944 -8.328125,-1.27539 1.07037,5.89437 18.460978,19.69212 30.542969,14.91211 2.426649,-0.13856 8.995584,-5.95949 9.017578,-5.9375 2.932522,1.97945 6.669946,6.19426 9.675781,8.79688 -6.128971,5.98234 -6.788795,16.86197 5.058594,20.23437 -0.439879,5.28587 6.268839,7.04028 12.537109,5.2793 -0.54985,2.64073 3.32141,4.88128 5.71875,4.94726 -1.31963,5.0586 2.13247,7.04656 4.50781,9.89844 -5.71842,9.45738 -3.40906,19.79338 2.5293,26.94141 2.22872,2.68325 4.23916,5.15522 6.36523,7.72851 -1.43693,-0.0733 -5.11742,-2.98463 -6.01171,-1.70898 -0.43988,0.96187 4.1421,8.73876 1.60546,11.78125 -4.4501,5.33719 -13.84292,5.22059 -20.76367,5.84375 -16.246146,1.445 -42.894527,3.489 -44.412108,12.33789 -0.498516,2.9032 1.091286,5.38952 2.63086,7.03906 5.879706,6.30566 25.395541,4.88135 31.927734,4.37695 0.630492,2.52051 2.126957,4.35494 5.191404,5.66797 16.57608,6.59818 42.93253,3.30634 55.65235,2.36133 5.23455,-0.38856 15.68225,-2.27389 23.13086,-4.83984 5.94495,-2.0601 16.0531,-5.38971 16.93359,-8.35742 0.54985,-3.29909 -1.51566,-5.98972 -2.74805,-8.79688 -2.74924,-6.26973 -6.26758,-14.40548 -6.26758,-19.24414 2.49998,4.01022 17.73315,13.36379 29.36133,15.61523 8.62968,1.66421 24.47175,4.71461 49.15625,10.51368 4.66198,1.51025 8.95267,3.34153 12.20703,6.64062 1.15835,1.17448 2.94056,2.86815 2.3086,4.40039 -3.41566,3.40319 -12.42617,5.71991 -19.35352,6.1582 -1.64954,-4.39866 -3.29956,-11.87726 -7.5957,-10.0371 -0.81304,8.95225 -23.8552,14.98572 -34.74219,20.15429 0.51246,3.65099 24.13378,3.19041 34.74805,2.19922 7.25799,-0.42521 20.45467,-0.10892 33.76172,-2.08984 -1.56964,-2.30936 -3.18281,-3.59299 -4.25391,-5.39063 16.29089,-3.00583 15.28804,-21.93482 -2.34375,-26.7207 -4.4435,-1.55424 -21.45988,-6.57025 -30.13281,-8.9082 -17.92504,-4.83867 -34.85975,-7.3601 -46.84571,-19.24414 -8.38615,-8.32104 -10.88957,-21.55323 -13.74804,-32.66016 9.45665,-11.32687 1.69435,-28.66691 -1.09961,-36.83984 -1.217,-4.43544 -4.08314,-8.1015 -3.18945,-12.20704 1.07037,-4.9413 5.76341,-8.36585 9.56836,-11.76757 6.26887,-5.61212 18.14481,-14.51815 14.1875,-37.17188 22.88748,-11.61279 34.26489,-26.9287 31.23046,-44.86914 -0.88708,-5.24848 -8.51937,-19.838218 -22.32422,-28.591796 -5.93897,-2.308628 -5.20544,1.540079 -4.06835,3.519531 3.07108,5.365782 5.49903,16.936392 4.72851,23.423825 -4.63265,4.64878 -13.30561,5.82889 -18.91406,6.04883 -1.74558,-5.31519 -16.48796,-16.167031 -27.9336,-18.146483 -11.37073,-1.971388 -26.94331,-0.175224 -34.31054,4.552734 -2.41933,-2.749239 -4.63259,-5.417794 -4.36133,-8.628906 0.66715,-7.859159 12.4985,-12.857822 14.05273,-19.023437 -0.23895,-1.239518 -1.12715,-1.71335 -2.42968,-1.648438 z m -9.13868,41.39844 c 2.34602,0 -0.13861,4.61201 -0.70312,6.18164 -2.11875,5.91563 -4.55333,11.15814 -6.4668,17.28711 -0.98972,3.17445 0.0299,0.36653 -1.12109,4.07617 -0.34457,-3.30642 -2.77946,-5.52896 -5.63867,-5.88086 h -0.21289 l -0.21094,0.45508 c -1.0997,2.412 -2.67618,6.15832 -2.77149,6.79687 -0.25659,-1.18034 -0.11084,-3.88663 0.40235,-5.99804 l 0.31641,-1.04883 -0.47657,0.10351 c -3.96623,1.31231 -7.74298,6.42804 -7.42773,17.23438 -3.37973,-2.85188 -1.85474,-13.21699 2.94726,-20.09375 2.92519,-4.19351 4.36206,-7.73573 8.15235,-11.38672 2.97651,-2.86581 5.99693,-7.20604 13.21093,-7.72656 z m 15.63477,4.41406 c 0.60891,-0.0246 1.20921,0.0437 1.79297,0.21875 10.46177,3.1378 11.59746,21.83909 9.27344,33.73047 -0.90908,4.62679 -3.16798,17.41245 -16.79688,17.56641 -0.90908,0.008 -1.86914,-0.0353 -2.88086,-0.14454 -2.67592,-0.27932 -1.76681,-0.0819 -4.07617,-0.98437 10.94564,-10.45444 9.58303,-23.78232 3.49805,-27.72656 l -1.57617,-0.74024 -0.31641,0.35938 c -1.13635,1.51098 -2.57382,4.72817 -2.98438,7.10351 -0.54251,-2.19206 -0.0131,-5.82093 0.91797,-7.70508 l 0.0937,-0.15429 -0.92968,0.0449 c -1.78151,0.21994 -3.72512,1.06337 -5.72657,2.68359 2.32403,-4.58939 5.33783,-11.1009 8.43164,-15.3164 2.33502,-4.06704 7.01691,-8.76325 11.2793,-8.93555 z M 129.6582,289.30859 c 5.19057,0.20381 10.20635,0.88589 14.95703,2.24805 0.55718,1.48826 0.45302,2.71983 -0.4414,3.62891 -4.54541,-1.37096 -9.46317,-2.22011 -14.73438,-2.58008 0.35924,-1.31744 0.43869,-2.41639 0.21875,-3.29688 z m 22.32618,2.70703 c 4.87683,0.0183 9.70329,0.87133 13.69335,2.67969 0.31525,0.71114 0.20474,1.42949 0.0508,2.14063 -3.15247,-2.03077 -10.70326,-3.45848 -15.61524,-2.46875 -0.26393,-0.63709 -0.39665,-1.38632 -0.2207,-2.3086 0.69647,-0.0311 1.39509,-0.0455 2.0918,-0.043 z m 28.45117,1.4043 c 2.61727,0 4.73632,2.53068 4.73633,5.64649 0,3.1158 -2.11906,5.63672 -4.73633,5.63671 -2.61068,0 -4.72852,-2.52091 -4.72852,-5.63671 0,-3.11581 2.11857,-5.64649 4.72852,-5.64649 z m -51.81836,1.27539 c 5.16857,0.64516 9.56099,1.65053 13.13867,3.02149 -0.50586,0.88708 -1.52525,1.58305 -3.18945,2.03906 -3.55569,-1.43107 -7.88912,-2.41081 -12.47852,-3.24805 1.15835,-0.41055 2.09675,-0.96207 2.5293,-1.8125 z m 21.55469,2.14063 c 5.07318,-0.066 10.07384,0.68432 15.00781,2.20117 0.19061,1.02052 -0.60261,1.97945 -1.54102,2.5293 -4.03222,-1.62755 -7.74056,-2.31848 -13.96484,-2.20118 -0.16129,-0.84236 -0.0738,-1.68619 0.49805,-2.52929 z m -26.89063,0.88086 c 3.14513,1.24045 6.42085,2.4279 10.00586,3.51953 -0.9824,0.38856 -2.82221,0.51211 -4.39844,0.60742 -3.65832,-0.98239 -6.81065,-2.06703 -9.72851,-3.18945 1.67153,-0.31672 3.19735,-0.62372 4.12109,-0.9375 z m -9.50977,1.59765 c 3.61434,0.82111 6.61308,1.84975 9.34766,2.97071 -0.63782,0.49779 -1.87689,0.81292 -3.95898,0.8789 -3.0205,-1.20087 -6.48027,-2.2291 -10.22657,-3.13672 z m -18.83398,1.06836 c 5.20523,1.43107 8.54053,3.71303 10.55664,6.60157 -2.33135,1.14504 -4.5084,3.07843 -5.916015,4.52343 -6.847439,2.71992 -30.886775,1.619 -30.828125,-0.76367 0.0073,-0.3453 -0.04441,0.38862 -0.06641,0.44727 -0.78445,1.81083 18.90868,3.31429 29.539062,1.60547 -2.001446,2.26527 -2.698851,5.89421 -2.068359,8.75195 -11.429505,0.90908 -22.566454,1.10813 -29.589844,-2.91016 -3.115805,-2.46332 -5.197636,-5.86571 -3.298828,-8.9082 2.947185,-6.37677 20.872863,-7.83594 31.671875,-9.34766 z m 51.16602,0.74414 c 4.86798,0.32111 8.92891,0.98949 12.75586,1.75782 -0.48387,0.56524 -1.72407,0.9924 -3.79883,1.26953 -3.58501,-0.78445 -7.69639,-1.30582 -12.14649,-1.65039 0.41789,-0.54252 1.59856,-0.98107 3.18946,-1.37696 z m -7.75782,2.19922 c 4.72869,0.31525 8.30766,0.86486 10.28711,1.75781 -0.31524,0.67448 -1.7017,1.21032 -4.17969,1.59961 -2.98378,-1.39221 -7.4716,-1.95805 -12.15624,-2.41992 2.07469,-0.31524 4.12802,-0.62372 6.04882,-0.9375 z m -15.03515,1.67969 c 10.63772,0.88709 20.15933,5.74549 21.25976,15.46094 -9.9779,4.34013 -35.00522,0.77007 -44.25,-2.31641 6.78146,4.56814 33.65794,7.03145 44.54492,3.79102 17.34587,0.14662 33.94994,-3.17419 49.375,-10.88672 0.85777,1.50145 1.18043,3.00294 1.42969,4.50586 l -0.43945,2.09179 c -18.97269,10.66559 -47.64774,15.61321 -84.23828,11.6543 -6.5322,-0.71114 -12.425103,-2.63926 -13.634768,-7.58789 -1.634881,-6.65682 2.896108,-10.82764 9.347658,-13.85547 4.16418,-1.96332 10.56447,-2.35889 16.60547,-2.85742 z"
           style="stroke-width:0.73313051" />
        <path
           style="fill:#9a9999;stroke:#000000;stroke-width:0.5"
           inkscape:connector-curvature="0"
           id="path16"
           d="m 71.09,177.955 c -2.84,-2.68 -6.36,-5.84 -9.19,-8.52 1.2,-3.79 3.42,-8.301 3.19,-12.641 -0.28,-5.01 -2.22,-10.1 -5.24,-14.109 -5.61,-7.45 -19.64,-18.96 -22.51,-16.61 0.77,3.38 4.5,5.75 5.89,9.44 1.38,3.329 1.91,5.21 3.08,10.579 2.39,-0.439 3.23,-3.689 5.69,-4.55 2.54,3.94 5.9,9 6.26,13.891 0.22,3 -2,7.01 -2.51,8.42 -3.97,-0.98 -12.29,-6.05 -19,-9.33 -1.75,-1.3 1.52,-3.91 2.84,-5.13 -6.56,-2.181 -11.44,-3.37 -18.34,-5.4 2.13,4.3 6.84,15.49 8.78,17.58 0.89,-2.53 1.33,-3.93 3.41,-3.87 3.49,3.48 9.46,9.351 13.09,12.98 -1.7,6.83 -20.83,8.189 -28.68,4.21 0.09,-2.57 3.19,-4.21 4.21,-6.94 -1.88,0.17 -6.33,0.4 -9.49,0.2 -3.8,-0.25 -6.26,-1.5 -11.3,-1.73 2.24,8.011 23.98,24.4 39.91,18.94 3.3,-0.18 12.84,-8.57 12.87,-8.54 3.98,2.69 9.55,8.39 13.93,12.37 1.71,-1.57 2.65,-2.01 4.16,-2.351 -1.33,-2.269 -1.85,-5.359 -1.05,-8.889 z" />
        <path
           style="fill:#9a9999;stroke:#000000;stroke-width:0.5"
           inkscape:connector-curvature="0"
           id="path26"
           d="m 157.39,260.175 1.99,-1.818 c 4.04,-0.28 8.3,-0.511 12.181,-1.28 l 17.369,13.59 c 5.92,5.75 5.66,14.57 -7.029,8.83 z" />
      </g>
    </g>
  </g>
</svg>
