<?xml version="1.0" encoding="UTF-8" standalone="no"?>
<!-- Created with Inkscape (http://www.inkscape.org/) -->

<svg
   version="1.1"
   width="105"
   height="105"
   id="svg31446"
   sodipodi:docname="solaris.svg"
   inkscape:version="1.2.2 (b0a8486541, 2022-12-01)"
   xmlns:inkscape="http://www.inkscape.org/namespaces/inkscape"
   xmlns:sodipodi="http://sodipodi.sourceforge.net/DTD/sodipodi-0.dtd"
   xmlns="http://www.w3.org/2000/svg"
   xmlns:svg="http://www.w3.org/2000/svg">
  <sodipodi:namedview
     id="namedview21"
     pagecolor="#ffffff"
     bordercolor="#666666"
     borderopacity="1.0"
     inkscape:showpageshadow="2"
     inkscape:pageopacity="0.0"
     inkscape:pagecheckerboard="0"
     inkscape:deskcolor="#d1d1d1"
     showgrid="true"
     inkscape:zoom="5.9727273"
     inkscape:cx="52.990868"
     inkscape:cy="50.981735"
     inkscape:window-width="1672"
     inkscape:window-height="1024"
     inkscape:window-x="1680"
     inkscape:window-y="0"
     inkscape:window-maximized="1"
     inkscape:current-layer="svg31446">
    <inkscape:grid
       type="xygrid"
       id="grid1466"
       originx="-12.814036"
       originy="-0.0352044" />
  </sodipodi:namedview>
  <defs
     id="defs31448" />
  <g
     id="g1641"
     transform="translate(0.39020987,26.406586)">
    <path
       d="m 75.345724,24.983386 c 0.1226,-0.66998 1.745,-4.69998 1.745,-4.69998 2.01,-4.52752 0.7325,-7.7725 0.7325,-7.7725 -1.185,-4.3975203 -4.5875,-7.8350203 -4.5875,-7.8350203 0.165,0.1226 1.2,2.875 1.2,2.875 2.385,6.5875203 -4.01,10.3675203 -4.01,10.3675203 -1.6475,1.08748 -4.3375,3.68 -4.3375,3.68 -3.7725,3.6875 -2.63248,8.20748 -2.63248,8.20748 l -0.222972,-1.787975 c 4.4875,1.10252 8.177639,4.671194 11.507982,7.606686 -2.5375,-4.93752 0.60499,-10.641311 0.60499,-10.641311"
       id="path212"
       style="fill:#000000;fill-opacity:1;fill-rule:nonzero;stroke:none"
       sodipodi:nodetypes="ccccccccccc" />
    <path
       d="m 81.903874,47.903887 c -0.42,-5.43 5.278849,-9.323695 5.278849,-9.323695 0.357503,-0.57996 3.360003,-3.70746 3.360003,-3.70746 3.5575,-3.45504 3.59,-6.94254 3.59,-6.94254 0.545,-4.5225 -1.3325,-8.98 -1.3325,-8.98 0.1026,0.1726 0.0376,3.11504 0.0376,3.11754 -0.2425,6.99746 -7.585007,8.1225 -7.585007,8.1225 -1.94,0.39746 -5.404999,1.8 -5.404999,1.8 -4.5175,1.86996 -4.443291,3.488974 -4.540791,4.076474 2.936957,3.55779 4.819351,7.491768 6.427685,11.675285"
       id="path214"
       style="fill:#000000;fill-opacity:1;fill-rule:nonzero;stroke:none"
       sodipodi:nodetypes="cccccccccc" />
    <path
       d="m 103.74321,36.375524 c 0.035,0.205 -1.13,2.915 -1.13,2.915 -2.48163,6.249159 -6.919559,5.653073 -6.919559,5.653073 -0.072,-0.101494 -4.241108,-0.09904 -6.722455,-0.386447 -5.275004,0.06 -7.001339,2.955697 -7.001339,2.955697 l -0.303146,0.486469 c 1.616083,4.203914 1.638483,8.212773 1.68555,12.434293 0.334746,-4.783691 8.794925,-6.742786 8.799925,-6.742786 0.5475,-0.39252 5.4409,-2.152885 5.4409,-2.152885 4.585024,-1.88248 5.649004,-6.166493 5.649004,-6.166493 1.17551,-4.206388 0.50114,-8.995921 0.50114,-8.995921"
       id="path216"
       style="fill:#000000;fill-opacity:1;fill-rule:nonzero;stroke:none"
       sodipodi:nodetypes="ccccccccccc" />
    <path
       d="m 61.604356,27.035 c -4,-3.6475 -4.2925,-8.955 -4.2925,-8.955 -0.15,-0.665 -0.1324,-5 -0.1276,-5 0.1874,-4.95 -2.2025,-7.495 -2.2025,-7.495 -2.72,-3.6525 -7.1625,-5.585 -7.1625,-5.585 0.2025,0.055 2.1875,2.235 2.1875,2.235 4.6475,5.225 0.1124,11.11 0.1124,11.11 -1.1275,1.625 -2.665,5.0275 -2.665,5.0275 -2.0175,4.555 -0.214196,8.681717 0.0433,9.071717 2.265,-0.335 5.119196,-1.004217 7.476696,-0.979217 2.2625,0.0226 4.475,0.705365 6.63,1.060365"
       id="path218"
       style="fill:#000000;fill-opacity:1;fill-rule:nonzero;stroke:none"
       sodipodi:nodetypes="ccccccccccc" />
    <path
       d="m 39.577852,22.431386 c -0.3675,-0.565 -1.9825,-4.59 -1.9825,-4.59 -1.6625,-4.66752 -4.8225,-6.14 -4.8225,-6.14 -3.8975,-2.3699999 -8.73,-2.5175199 -8.73,-2.5175199 0.2075,-0.02 2.8575,1.2625199 2.8575,1.2625199 6.27,3.1225 4.2475,10.27 4.2475,10.27 -0.44,1.92498 -0.6025,5.6625 -0.6025,5.6625 -0.1924,5.26248 4.062592,8.692708 4.062592,8.692708 l 0.653645,0.214975 c 2.602246,-3.328889 5.706422,-5.274261 10.16122,-6.951587 -5.1325,-1.875 -5.845057,-5.903596 -5.845057,-5.903596"
       id="path220"
       style="fill:#000000;fill-opacity:1;fill-rule:nonzero;stroke:none"
       sodipodi:nodetypes="ccccccccccc" />
    <path
       d="m 36.617239,36.487414 c -5.4375,0.14 -9.3325,-3.52 -9.3325,-3.52 -0.555,-0.3875 -3.535,-3.535 -3.535,-3.535 -3.2725,-3.72 -6.765,-3.915 -6.765,-3.915 -4.49,-0.765 -9.025,0.89 -9.025,0.89 0.18,-0.0926 3.1125,0.1126 3.1175,0.1126 6.975,0.585 7.7375,7.97 7.7375,7.97 0.3,1.955 1.53748,5.485 1.53748,5.485 1.77252,4.9625 6.35502,5.815 6.35502,5.815 l 1.66759,0.359926 c 1.56174,-4.209501 2.858935,-6.444826 5.748274,-9.705255"
       id="path222"
       style="fill:#000000;fill-opacity:1;fill-rule:nonzero;stroke:none"
       sodipodi:nodetypes="ccccccccccc" />
    <path
       d="m 20.3925,46.541095 c -0.6625,-0.1526 -4.6,-1.97 -4.6,-1.97 -4.415,-2.2575 -7.7275,-1.1475 -7.7275,-1.1475 -4.455,0.9475 -8.065,4.17 -8.065,4.17 0.135,-0.1574 2.9425,-1.05 2.9425,-1.05 6.7,-2.0375 10.1375,4.5475 10.1375,4.5475 0.9975,1.7025 3.455,4.5275 3.455,4.5225 3.4775,3.9575 8.06,3.06 8.06,3.06 l 1.414478,-0.382575 c 0.363598,-4.905934 0.870126,-7.238611 2.102562,-11.976419 -4.9725,2.0925 -7.71954,0.226494 -7.71954,0.226494"
       id="path224"
       style="fill:#000000;fill-opacity:1;fill-rule:nonzero;stroke:none;image-rendering:auto"
       inkscape:highlight-color="#3a00ff"
       sodipodi:nodetypes="ccccccccccc" />
  </g>
  <ellipse
     style="fill:#000000;fill-opacity:1"
     id="path1539"
     cx="43.795746"
     cy="50.49498"
     rx="0.17149968"
     ry="0.025868747" />
</svg>
