<?xml version="1.0" encoding="UTF-8" standalone="no"?>
<svg
   xmlns:dc="http://purl.org/dc/elements/1.1/"
   xmlns:cc="http://creativecommons.org/ns#"
   xmlns:rdf="http://www.w3.org/1999/02/22-rdf-syntax-ns#"
   xmlns:svg="http://www.w3.org/2000/svg"
   xmlns="http://www.w3.org/2000/svg"
   xmlns:sodipodi="http://sodipodi.sourceforge.net/DTD/sodipodi-0.dtd"
   xmlns:inkscape="http://www.inkscape.org/namespaces/inkscape"
   viewBox="0 0 18.181818 18.181818"
   version="1.1"
   width="200"
   height="200"
   id="svg11"
   sodipodi:docname="windows.svg"
   inkscape:version="0.92.1 r">
  <metadata
     id="metadata17">
    <rdf:RDF>
      <cc:Work
         rdf:about="">
        <dc:format>image/svg+xml</dc:format>
        <dc:type
           rdf:resource="http://purl.org/dc/dcmitype/StillImage" />
        <dc:title></dc:title>
      </cc:Work>
    </rdf:RDF>
  </metadata>
  <defs
     id="defs15" />
  <sodipodi:namedview
     pagecolor="#ffffff"
     bordercolor="#666666"
     borderopacity="1"
     objecttolerance="10"
     gridtolerance="10"
     guidetolerance="10"
     inkscape:pageopacity="0"
     inkscape:pageshadow="2"
     inkscape:window-width="1352"
     inkscape:window-height="1062"
     id="namedview13"
     showgrid="false"
     inkscape:zoom="1.5870916"
     inkscape:cx="145.85937"
     inkscape:cy="264"
     inkscape:window-x="0"
     inkscape:window-y="18"
     inkscape:window-maximized="0"
     inkscape:current-layer="svg11" />
  <g
     id="surface1"
     transform="matrix(0.5050505,0,0,0.5050505,-3.030303,-3.030257)"
     style="fill:#000000">
    <path
       style="fill:#000000"
       d="M 22.808594,24.511719 19.320313,36.589844 C 16.289063,34.535156 12.992188,32.84375 6,35.757813 L 9.410156,23.8125 9.449219,23.792969 c 6.964844,-2.886719 10.335937,-1.347656 13.359375,0.71875 z"
       id="path2"
       inkscape:connector-curvature="0" />
    <path
       style="fill:#000000"
       d="M 24.632813,25.679688 21.1875,37.621094 c 3.027344,2.070312 6.382813,3.71875 13.363281,0.808594 L 37.875,26.785156 c -7.113281,2.453125 -10.214844,0.945313 -13.242187,-1.105468 z"
       id="path4"
       inkscape:connector-curvature="0" />
    <path
       style="fill:#000000"
       d="M 23.386719,22.335938 26.828125,10.371094 C 23.800781,8.3125 20.441406,6.65625 13.453125,9.574219 l -3.441406,12.015625 c 2.773437,-1.152344 4.96875,-1.683594 6.804687,-1.664063 2.789063,0.01563 4.746094,1.175782 6.570313,2.410157 z"
       id="path6"
       inkscape:connector-curvature="0" />
    <path
       style="fill:#000000"
       d="m 28.644531,11.632813 -3.441406,12.03125 c 3.019531,2.0625 6.667969,3.75 13.359375,0.738281 L 42,12.414063 C 35.019531,15.316406 31.664063,13.6875 28.644531,11.632813 Z"
       id="path8"
       inkscape:connector-curvature="0" />
  </g>
</svg>
